# AST/ASF file generated using VICON BodyLanguage
# -----------------------------------------------
:version 1.10
:name VICON
:units
  mass 1.0
  length 0.45
  angle deg
:documentation
   .ast/.asf automatically generated from VICON data using
   VICON BodyBuilder and BodyLanguage model FoxedUp or BRILLIANT.MOD
:root
   order TX TY TZ RX RY RZ
   axis XYZ
   position 0 0 0  
   orientation 0 0 0 
:bonedata
  begin
     id 1 
     name lhipjoint
     direction 0.707368 -0.647095 0.284426 
     length 2.60678 
     axis 0 0 0  XYZ
  end
  begin
     id 2 
     name lfemur
     direction 0.34202 -0.939693 0  
     length 6.63812  
     axis 0 0 20  XYZ
    dof rx ry rz
    limits (-160.0 20.0)
           (-70.0 70.0)
           (-60.0 70.0)
  end
  begin
     id 3 
     name ltibia
     direction 0.34202 -0.939693 0   
     length 7.51178   
     axis 0 0 20   XYZ
    dof rx
    limits (-10.0 170.0)
  end
  begin
     id 4 
     name lfoot
     direction 0.121251 -0.333133 0.935051   
     length 1.83716   
     axis -90 7.62852e-016 20   XYZ
    dof rx rz
    limits (-45.0 90.0)
           (-70.0 20.0)
  end
  begin
     id 5 
     name ltoes
     direction 1.53611e-011 -4.21962e-011 1   
     length 0.916133   
     axis -90 7.62852e-016 20   XYZ
    dof rx
    limits (-90.0 20.0)
  end
  begin
     id 6 
     name rhipjoint
     direction -0.692419 -0.660507 0.290321   
     length 2.55385  
     axis 0 0 0  XYZ 
  end
  begin
     id 7 
     name rfemur
     direction -0.34202 -0.939693 0   
     length 7.29079   
     axis 0 0 -20   XYZ
    dof rx ry rz
    limits (-160.0 20.0)
           (-70.0 70.0)
           (-70.0 60.0)
  end
  begin
     id 8 
     name rtibia
     direction -0.34202 -0.939693 0   
     length 7.47143   
     axis 0 0 -20   XYZ
    dof rx
    limits (-10.0 170.0)
 end
 begin
     id 9 
     name rfoot
     direction -0.119907 -0.329441 0.936532   
     length 1.79439  
     axis -90 -7.62852e-016 -20   XYZ
    dof rx rz
    limits (-45.0 90.0)
           (-20.0 70.0)
  end
  begin
     id 10 
     name rtoes
     direction -1.53571e-011 -4.21961e-011 1   
     length 0.896039   
     axis -90 -7.62852e-016 -20   XYZ
    dof rx
    limits (-90.0 20.0)
  end
  begin
     id 11 
     name lowerback
     direction 0.0367721 0.992912 -0.113016   
     length 1.73542   
     axis 0 0 0   XYZ
    dof rx ry rz
    limits (-20.0 45.0)
           (-30.0 30.0)
           (-30.0 30.0)
  end
  begin
     id 12 
     name upperback
     direction -0.000314626 0.990678 0.136227   
     length 1.7514   
     axis 0 0 0   XYZ
    dof rx ry rz
    limits (-20.0 45.0)
           (-30.0 30.0)
           (-30.0 30.0)
  end
  begin
     id 13 
     name thorax
     direction -0.0226159 0.981151 0.191917   
     length 1.71471   
     axis 0 0 0   XYZ
    dof rx ry rz
    limits (-20.0 45.0)
           (-30.0 30.0)
           (-30.0 30.0)
  end
  begin
     id 14 
     name lowerneck
     direction 0.0219333 0.998071 0.0580739   
     length 1.65882   
     axis 0 0 0   XYZ
    dof rx ry rz
    limits (-20.0 45.0)
           (-30.0 30.0)
           (-30.0 30.0)
  end
  begin
     id 15 
     name upperneck
     direction 0.0384529 0.980058 -0.194957   
     length 1.6612   
     axis 0 0 0   XYZ
    dof rx ry rz
    limits (-20.0 45.0)
           (-30.0 30.0)
           (-30.0 30.0)
  end
  begin
     id 16
     name head
     direction 0.00592123 0.997421 -0.0715234  
     length 1.68077  
     axis 0 0 0   XYZ
    dof rx ry rz
    limits (-20.0 45.0)
           (-30.0 30.0)
           (-30.0 30.0)
  end
  begin
     id 17 
     name lclavicle
     direction 0.904803 0.417826 0.0821728  
     length 3.42227  
     axis 0 0 0   XYZ
    dof ry rz
    limits (-20.0 10.0)
           (0.0 20.0)
  end
  begin
     id 18 
     name lhumerus
     direction 1 -4.48965e-011 -2.68786e-027   
     length 5.11878   
     axis -180 -30 -90   XYZ
    dof rx ry rz
    limits (-60.0 90.0)
           (-90.0 90.0)
           (-90.0 90.0)
  end
  begin
     id 19
     name lradius
     direction 1 -4.48965e-011 2.61168e-028   
     length 3.59971   
     axis -180 -30 -90   XYZ
    dof rx
    limits (-10.0 170.0)
  end
  begin
     id 20
     name lwrist
     direction 1 -4.48965e-011 1.58672e-027   
     length 1.79985   
     axis -1.65735e-015 90 90   XYZ
    dof ry
    limits (-180.0 0.0)
 end
  begin
     id 21 
     name lhand
     direction 1 -4.48942e-011 3.17344e-027   
     length 0.62877   
     axis -2.02492e-015 90 90   XYZ
    dof rx rz
    limits (-90.0 90.0)
           (-45.0 45.0)
  end
  begin
     id 22 
     name lfingers
     direction 1 -4.49011e-011 6.34687e-027   
     length 0.506931   
     axis -4.04985e-015 90 90   XYZ
    dof rx
    limits (0.0 90.0)
  end
  begin
     id 23
     name lthumb
     direction 0.707107 -6.34982e-011 0.707107   
     length 0.727854   
     axis -90 45 2.85299e-015   XYZ
    dof rx rz
    limits (-45.0 45.0)
           (-45.0 45.0)
  end
  begin
     id 24 
     name rclavicle
     direction -0.945647 0.32488 0.0143075   
     length 3.52737  
     axis 0 0 0   XYZ 
    dof ry rz
    limits (-10.0 20.0)
           (-20.0 0.0)
  end
  begin
     id 25 
     name rhumerus
     direction -1 -4.48962e-011 1.92182e-027  
     length 5.4902   
     axis -180 30 90   XYZ
    dof rx ry rz
    limits (-90.0 60.0)
           (-90.0 90.0)
           (-90.0 90.0)
  end
  begin
     id 26 
     name rradius
     direction -1 -4.48967e-011 -5.97193e-028   
     length 3.20659   
     axis -180 30 90   XYZ
    dof rx
    limits (-10.0 170.0)
  end
  begin
     id 27 
     name rwrist
     direction -1 -4.48964e-011 1.58672e-027   
     length 1.6033   
     axis -1.65735e-015 -90 -90   XYZ
    dof ry
    limits (-180.0 0.0)
  end
  begin
     id 28
     name rhand
     direction -1 -4.49006e-011 3.17344e-027   
     length 0.691885   
     axis -2.02492e-015 -90 -90   XYZ
    dof rx rz
    limits (-90.0 90.0)
           (-45.0 45.0)
  end
  begin
     id 29
     name rfingers
     direction -1 -4.48908e-011 6.34687e-027   
     length 0.557815   
     axis -4.04985e-015 -90 -90   XYZ
    dof rx
    limits (0.0 90.0)
  end
  begin
     id 30
     name rthumb
     direction -0.707107 -6.34999e-011 0.707107   
     length 0.800915   
     axis -90 -45 -2.85299e-015   XYZ
    dof rx rz
    limits (-45.0 45.0)
           (-45.0 45.0)
  end
:hierarchy
  begin
    root lhipjoint rhipjoint lowerback
    lhipjoint lfemur
    lfemur ltibia
    ltibia lfoot
    lfoot ltoes
    rhipjoint rfemur
    rfemur rtibia
    rtibia rfoot
    rfoot rtoes
    lowerback upperback
    upperback thorax
    thorax lowerneck lclavicle rclavicle
    lowerneck upperneck
    upperneck head
    lclavicle lhumerus
    lhumerus lradius
    lradius lwrist
    lwrist lhand lthumb
    lhand lfingers
    rclavicle rhumerus
    rhumerus rradius
    rradius rwrist
    rwrist rhand rthumb
    rhand rfingers
  end

#!OML:ASF I:\Actors\actors\Patient Classification 1\Patient 1\Session 1\Subject1.ASF
:FULLY-SPECIFIED
:DEGREES
243
root 0.602901 17.5605 8.06075 9.33265 -1.87638 -6.48398
lowerback 12.826 0.515683 5.8491
upperback -11.5895 2.31903 1.49167
thorax -20.8908 0.327573 -2.19638
lowerneck -3.3317 -17.1616 -12.2795
upperneck -29.582 -17.4426 38.8184
head -2.31084 -10.4134 14.6959
rclavicle -7.14382e-015 2.19657e-014
rhumerus -54.559 -23.3893 -62.6767
rradius 17.7945
rwrist 49.0137
rhand -0.89199 -23.6382
rfingers 7.12502
rthumb 24.7357 -52.059
lclavicle -7.14382e-015 2.19657e-014
lhumerus -45.3466 19.1495 75.0476
lradius 17.0177
lwrist -36.5818
lhand -16.5387 -18.7182
lfingers 7.12502
lthumb 9.68039 11.0393
rfemur -2.55678 25.4931 22.4675
rtibia 0.917157
rfoot -11.5991 -25.6093
rtoes 3.1618
lfemur 4.05255 -40.006 -13.2732
ltibia -3.71562
lfoot -15.0924 46.1334
ltoes 3.15865
244
root 0.603975 17.5615 8.06656 9.2978 -1.94946 -6.43672
lowerback 12.8472 0.545251 5.8006
upperback -11.6136 2.34207 1.4343
thorax -20.9346 0.335991 -2.24518
lowerneck -3.40407 -16.9729 -12.3762
upperneck -29.9259 -17.1101 38.5442
head -2.51797 -10.2323 14.7203
rclavicle -4.98204e-015 -2.54444e-014
rhumerus -54.6327 -23.4013 -62.6184
rradius 17.784
rwrist 48.9732
rhand -0.882799 -23.7261
rfingers 7.12502
rthumb 24.7445 -52.1457
lclavicle -4.98204e-015 -2.54444e-014
lhumerus -45.4374 19.1479 74.9646
lradius 17.0516
lwrist -36.5243
lhand -16.6176 -19.0827
lfingers 7.12502
lthumb 9.60427 10.6784
rfemur -2.48868 25.5191 22.4256
rtibia 0.895101
rfoot -11.5938 -25.5574
rtoes 3.23403
lfemur 4.21513 -40.1177 -13.4589
ltibia -3.74546
lfoot -15.2535 46.2841
ltoes 3.67105
245
root 0.60353 17.562 8.07026 9.28174 -1.97732 -6.47181
lowerback 12.8837 0.553988 5.82887
upperback -11.651 2.3578 1.38833
thorax -21.008 0.330015 -2.32135
lowerneck -3.37916 -16.7549 -12.3308
upperneck -30.377 -16.7204 38.181
head -2.82265 -10.0413 14.7273
rclavicle -7.47927e-015 -1.64991e-014
rhumerus -54.685 -23.307 -62.6834
rradius 17.7832
rwrist 48.8065
rhand -0.75445 -23.9039
rfingers 7.12502
rthumb 24.8675 -52.3065
lclavicle -7.47927e-015 -1.64991e-014
lhumerus -45.5213 18.9202 75.0119
lradius 17.154
lwrist -36.1889
lhand -16.7076 -19.5915
lfingers 7.12502
lthumb 9.51751 10.1736
rfemur -2.43868 25.5668 22.4851
rtibia 0.864583
rfoot -11.5712 -25.5777
rtoes 3.41784
lfemur 4.2936 -40.1187 -13.4543
ltibia -3.79294
lfoot -15.313 46.3081
ltoes 3.46184
246
root 0.604156 17.5625 8.07402 9.27214 -2.02766 -6.55104
lowerback 12.9039 0.561814 5.92739
upperback -11.681 2.38632 1.34177
thorax -21.0574 0.319895 -2.44098
lowerneck -3.51382 -16.5341 -12.0663
upperneck -30.7423 -16.3328 37.7302
head -3.11673 -9.84523 14.638
rclavicle -8.77137e-015 2.21645e-014
rhumerus -54.7581 -23.3311 -62.6518
rradius 17.7494
rwrist 48.8769
rhand -0.713501 -23.89
rfingers 7.12502
rthumb 24.9068 -52.2872
lclavicle -8.77137e-015 2.21645e-014
lhumerus -45.5824 18.781 74.9669
lradius 17.1997
lwrist -36.0022
lhand -16.7349 -19.8033
lfingers 7.12502
lthumb 9.49118 9.96299
rfemur -2.41197 25.577 22.5825
rtibia 0.848771
rfoot -11.5074 -25.5527
rtoes 3.16288
lfemur 4.40743 -40.212 -13.4381
ltibia -3.84434
lfoot -15.4022 46.4567
ltoes 3.25137
247
root 0.60433 17.5631 8.07716 9.28976 -2.06992 -6.59815
lowerback 12.883 0.565079 5.99675
upperback -11.7045 2.39798 1.29605
thorax -21.0704 0.30824 -2.53731
lowerneck -3.74638 -16.3359 -11.8285
upperneck -31.1507 -15.9862 37.1311
head -3.41569 -9.64851 14.4802
rclavicle 1.56543e-015 -1.43125e-014
rhumerus -54.883 -23.6256 -62.3453
rradius 17.6504
rwrist 49.3579
rhand -0.799123 -23.7523
rfingers 7.12502
rthumb 24.8247 -52.1608
lclavicle 1.56543e-015 -1.43125e-014
lhumerus -45.6148 18.804 74.8327
lradius 17.1864
lwrist -36.0649
lhand -16.6603 -19.7619
lfingers 7.12502
lthumb 9.56312 10.0011
rfemur -2.43866 25.6039 22.6344
rtibia 0.882659
rfoot -11.5089 -25.5561
rtoes 2.86775
lfemur 4.42528 -40.2194 -13.4014
ltibia -3.84571
lfoot -15.3648 46.5199
ltoes 3.32704
248
root 0.604726 17.5632 8.07939 9.30509 -2.05713 -6.60994
lowerback 12.8663 0.558135 6.05953
upperback -11.7293 2.39215 1.2373
thorax -21.0895 0.288107 -2.6405
lowerneck -3.96845 -16.1256 -11.7909
upperneck -31.4682 -15.651 36.6297
head -3.64305 -9.44227 14.3764
rclavicle -1.20016e-014 5.76476e-015
rhumerus -55.0092 -23.8906 -62.0684
rradius 17.5627
rwrist 49.7336
rhand -0.860568 -23.654
rfingers 7.12502
rthumb 24.7658 -52.0706
lclavicle -1.20016e-014 5.76476e-015
lhumerus -45.6573 18.9061 74.6394
lradius 17.1548
lwrist -36.2284
lhand -16.5854 -19.7674
lfingers 7.12502
lthumb 9.63537 9.99225
rfemur -2.45054 25.6732 22.6509
rtibia 0.907436
rfoot -11.622 -25.6265
rtoes 3.15435
lfemur 4.36599 -40.1395 -13.3542
ltibia -3.80212
lfoot -15.2236 46.4319
ltoes 3.60198
249
root 0.605851 17.563 8.08102 9.29313 -2.04686 -6.59902
lowerback 12.906 0.553848 6.10225
upperback -11.7544 2.38969 1.17444
thorax -21.1489 0.270249 -2.74002
lowerneck -4.23584 -15.88 -11.7953
upperneck -31.5775 -15.2879 36.3085
head -3.77093 -9.21998 14.3204
rclavicle -1.65985e-014 7.55382e-015
rhumerus -55.0973 -23.9091 -62.0197
rradius 17.5547
rwrist 49.774
rhand -0.884271 -23.4845
rfingers 7.12502
rthumb 24.7431 -51.9042
lclavicle -1.65985e-014 7.55382e-015
lhumerus -45.7408 19.1203 74.3495
lradius 17.091
lwrist -36.4867
lhand -16.6753 -19.9435
lfingers 7.12502
lthumb 9.54863 9.8201
rfemur -2.42152 25.7349 22.645
rtibia 0.899433
rfoot -11.7153 -25.665
rtoes 3.65033
lfemur 4.38038 -40.1267 -13.3837
ltibia -3.78803
lfoot -15.3239 46.3831
ltoes 3.89691
